# xmcd
#
# Track frame offsets:
#	150
#	21042
#	43760
#	61130
#	81862
#	96810
#	124605
#	147307
#	166265
#	186085
#	199225
#	227992
#	243172
#	268257
#
# Disc length: 3796 seconds
#
# Revision: 1
# Processed by: cddbd v1.5.1PL2 Copyright (c) Steve Scherf et al.
# Submitted via: audiograbber 1.83.01
#
DISCID=bf0ed20e
DTITLE=Mississippi Fred McDowell - Shake 'em On Down
DYEAR=1997
DGENRE=Blues
TTITLE0=Shake 'em On Down
TTITLE1=Louise
TTITLE2=My Babe
TTITLE3=Waves of Water
TTITLE4=Kokomo
TTITLE5=61 Highway
TTITLE6=Red Cross Store
TTITLE7=When I Lay My Burden Down
TTITLE8=Evil Hearted Woman
TTITLE9=I Asked For Whiskey, She Brought Me Gasoline
TTITLE10=Standing At The Burying Ground
TTITLE11=Glory Hallelujah
TTITLE12=Write Me A Few Of Your Lines
TTITLE13=My Baby Done Me Wrong
EXTD=
EXTT0=
EXTT1=
EXTT2=
EXTT3=
EXTT4=
EXTT5=
EXTT6=
EXTT7=
EXTT8=
EXTT9=
EXTT10=
EXTT11=
EXTT12=
EXTT13=
PLAYORDER=
